<svg width="354" height="81" viewBox="0 0 354 81" fill="none" xmlns="http://www.w3.org/2000/svg">
<path d="M331.312 31.8516C333.969 28.4609 337.344 26.7656 341.438 26.7656C342.562 26.7656 343.719 27 344.906 27.4688C346.109 27.9375 347.156 28.6172 348.047 29.5078C349.984 31.4453 350.953 33.9844 350.953 37.125V57H337.359V41.9766C337.359 40.0547 337.055 38.5469 336.445 37.4531C335.836 36.3438 335.109 35.7891 334.266 35.7891C333.438 35.7734 332.891 36.3125 332.625 37.4062C332.547 37.7188 332.508 38.0703 332.508 38.4609V57H319.219V41.9766C319.219 40.0547 318.883 38.5469 318.211 37.4531C317.555 36.3438 316.836 35.7891 316.055 35.7891C314.805 35.7891 314.18 36.7969 314.18 38.8125V57H300.258V27.8672H307.945L311.297 32.4141C312.438 30.6953 314.062 29.3281 316.172 28.3125C318.297 27.2812 320.461 26.7656 322.664 26.7656C325.523 26.7656 327.891 27.7344 329.766 29.6719C330.375 30.2969 330.891 31.0234 331.312 31.8516Z" fill="#176B87"/>
<path d="M288.211 14.3672C290.508 14.3672 292.211 14.8516 293.32 15.8203C294.43 16.7734 294.977 17.9922 294.961 19.4766C294.961 20.9609 294.25 22.3281 292.828 23.5781C291.422 24.8281 289.539 25.4531 287.18 25.4531C283.867 25.4531 281.805 24.4531 280.992 22.4531C280.758 21.8906 280.641 21.2656 280.641 20.5781C280.641 19.8906 280.805 19.1719 281.133 18.4219C281.461 17.6719 281.953 17 282.609 16.4062C284.062 15.0469 285.93 14.3672 288.211 14.3672ZM294.562 57H280.992V27.8672H294.562V57Z" fill="#176B87"/>
<path d="M228.023 19.5703H233.391L251.484 36.5625L270.07 19.5703H275.25V57H259.852V44.8594L250.289 55.3594L240.984 45.1406V57H228.023V19.5703Z" fill="#176B87"/>
<path d="M190.758 54.4219C189.508 53.25 188.508 51.7812 187.758 50.0156C187.023 48.2344 186.656 46.3203 186.656 44.2734C186.656 42.2266 186.859 40.4531 187.266 38.9531C188.078 35.9688 189.5 33.4609 191.531 31.4297C192.5 30.4297 193.578 29.5859 194.766 28.8984C197.203 27.4766 199.773 26.7656 202.477 26.7656C205.195 26.7656 207.578 27.6641 209.625 29.4609C210.281 30.0391 210.852 30.7031 211.336 31.4531L214.688 27.8672H222.375V57H214.688L211.336 52.1484C208.773 55.9297 204.891 57.8281 199.688 57.8438C198.25 57.8594 196.711 57.5781 195.07 57C193.445 56.4375 192.008 55.5781 190.758 54.4219ZM209.742 36.7031C209.18 36.375 208.508 36.2109 207.727 36.2109C206.945 36.2109 206.117 36.4922 205.242 37.0547C204.383 37.6016 203.609 38.2969 202.922 39.1406C201.391 41.0312 200.625 42.9531 200.625 44.9062C200.625 46.2812 201.047 47.25 201.891 47.8125C202.672 48.3281 203.859 48.2578 205.453 47.6016C207.062 46.9297 208.492 46.0625 209.742 45V36.7031Z" fill="#176B87"/>
<path d="M183.375 38.8594C181.938 38.8594 180.461 39.3828 178.945 40.4297C177.43 41.4766 176.664 42.4688 176.648 43.4062V57H162.539V27.8672H176.648V30.9844C177.445 29.7812 178.43 28.8203 179.602 28.1016C180.789 27.3828 182.047 26.9531 183.375 26.8125V38.8594Z" fill="#176B87"/>
<path d="M158.273 23.8828C157.508 23.664 156.75 23.5547 156 23.5547C154.641 23.5547 153.602 23.9453 152.883 24.7265C152.18 25.4922 151.781 26.539 151.688 27.8672H158.32V35.2969H151.688V57H137.672V35.2969H135V27.8672H137.672V22.9219C137.672 20.3281 138.703 18.2734 140.766 16.7578C142.828 15.2422 145.578 14.4844 149.016 14.4844C152.453 14.4687 155.539 15.2656 158.273 16.875V23.8828Z" fill="#176B87"/>
<path d="M124.195 14.3672C126.492 14.3672 128.195 14.8516 129.305 15.8203C130.414 16.7734 130.961 17.9922 130.945 19.4766C130.945 20.9609 130.234 22.3281 128.812 23.5781C127.406 24.8281 125.523 25.4531 123.164 25.4531C119.852 25.4531 117.789 24.4531 116.977 22.4531C116.742 21.8906 116.625 21.2656 116.625 20.5781C116.625 19.8906 116.789 19.1719 117.117 18.4219C117.445 17.6719 117.938 17 118.594 16.4062C120.047 15.0469 121.914 14.3672 124.195 14.3672ZM130.547 57H116.977V27.8672H130.547V57Z" fill="#176B87"/>
<path d="M64.7344 36.2109C64.7344 34.8359 64.0938 34.1484 62.8125 34.1484C61.3438 34.2891 60.3906 35.0469 59.9531 36.4219C59.7344 37.0781 59.5781 37.8438 59.4844 38.7188C59.4062 39.5781 59.2812 40.5 59.1094 41.4844L64.2422 40.3359L64.6875 36.75L64.7344 36.2109ZM61.5703 46.875C61.5703 46.875 61.1406 46.875 60.2812 46.875C59.875 46.875 59.4844 46.8594 59.1094 46.8281C59.1094 48.6875 60.1016 49.7031 62.0859 49.875C62.6328 49.9219 63.1641 49.9453 63.6797 49.9453C65.0078 49.9453 66.6719 49.6406 68.6719 49.0312C70.6875 48.4219 72.4922 47.4297 74.0859 46.0547L75.5391 53.3438C72.0547 56.3594 66.7891 57.8672 59.7422 57.8672C55.6953 57.8672 52.2188 56.6875 49.3125 54.3281C46.1562 51.75 44.5781 48.1797 44.5781 43.6172C44.5781 40.1797 45.4688 37.0938 47.25 34.3594C48.9062 31.8594 51.1484 29.9609 53.9766 28.6641C56.8047 27.3672 59.8594 26.7188 63.1406 26.7188C67.3906 26.7188 70.6016 27.6484 72.7734 29.5078C74.9609 31.3672 76.0469 33.6641 76.0312 36.3984C76.0312 39.1328 74.7266 41.5625 72.1172 43.6875C69.5078 45.8125 65.9922 46.875 61.5703 46.875Z" fill="#176B87"/>
<path d="M3.30469 19.5703C12.7891 18.8672 18.9766 18.5156 21.8672 18.5156C24.7734 18.5156 27.0625 18.7891 28.7344 19.3359C30.4219 19.8672 31.9297 20.6094 33.2578 21.5625C35.8359 23.3906 37.7812 25.8203 39.0938 28.8516C40.4219 31.8828 41.0859 34.9531 41.0859 38.0625C41.0859 41.1719 40.5781 43.8906 39.5625 46.2188C38.5625 48.5312 37.1719 50.4844 35.3906 52.0781C31.75 55.375 27.0391 57.0156 21.2578 57H3.30469V19.5703ZM17.8828 31.4531V45.7266C18.7109 45.0234 19.6094 44.3281 20.5781 43.6406C24.2969 40.9688 26.1562 38.1719 26.1562 35.25C26.1562 33.8281 25.7344 32.5156 24.8906 31.3125C24.0469 30.0938 22.9453 29.4844 21.5859 29.4844C20.2422 29.4844 19.0078 30.1406 17.8828 31.4531Z" fill="#176B87"/>
<path d="M111.586 32.8962L104.603 25.915C104.017 25.3291 103.222 25 102.394 25C101.565 25 100.77 25.3291 100.184 25.915L80.9156 45.1821C80.6245 45.4715 80.3936 45.8158 80.2364 46.1951C80.0793 46.5743 79.9989 46.981 80 47.3915V54.3743C80 55.2031 80.3293 55.998 80.9153 56.584C81.5014 57.1701 82.2962 57.4993 83.125 57.4993H109.375C109.872 57.4993 110.349 57.3018 110.701 56.9502C111.052 56.5985 111.25 56.1216 111.25 55.6243C111.25 55.1271 111.052 54.6501 110.701 54.2985C110.349 53.9469 109.872 53.7493 109.375 53.7493H95.1563L111.586 37.3165C111.876 37.0263 112.107 36.6818 112.264 36.3025C112.421 35.9233 112.502 35.5169 112.502 35.1064C112.502 34.6959 112.421 34.2894 112.264 33.9102C112.107 33.531 111.876 33.1864 111.586 32.8962ZM96.875 34.5306L98.5938 36.2493L87.5 47.3431L85.7813 45.6243L96.875 34.5306ZM83.75 53.7493V48.9056L86.175 51.329L88.5938 53.7493H83.75ZM91.875 51.7181L90.1563 49.9993L101.25 38.9056L102.969 40.6243L91.875 51.7181ZM105.625 37.9681L99.5313 31.8743L102.397 29.0087L108.491 35.1025L105.625 37.9681Z" fill="url(#paint0_linear_149177_69)"/>
<defs>
<linearGradient id="paint0_linear_149177_69" x1="60.0017" y1="41.4993" x2="166.5" y2="40" gradientUnits="userSpaceOnUse">
<stop stop-color="#176B87"/>
<stop offset="1" stop-color="#061A21"/>
</linearGradient>
</defs>
</svg>
